<svg xmlns="http://www.w3.org/2000/svg" width="1024" height="1024" viewBox="0 0 1024 1024">
  <path id="路径_1" data-name="路径 1" d="M512,1024C229.239,1024,0,794.761,0,512S229.239,0,512,0s512,229.239,512,512S794.761,1024,512,1024ZM727.814,341.447V235.361c0-18.568-15.747-32.814-33.269-30.037L371.28,256.592c-13.426,2.162-23.37,14.268-23.37,28.513v338.6a86.722,86.722,0,0,0-32.427-6.258c-48.538,0-87.928,39.868-87.928,89.065,0,49.22,39.367,89.088,87.927,89.088s87.882-39.822,87.882-89.02c0-1.547-.068-3.095-.137-4.642h.137v-309l268.925-42.689V567.479a87.449,87.449,0,0,0-32.54-6.3c-48.7,0-88.064,39.868-88.064,89.065,0,49.22,39.435,89.088,88.064,89.088,48.606,0,88.064-39.868,88.064-89.088,0-2.412-.137-4.824-.273-7.259V341.515l.273-.068Z" fill="#fff"/>
  <circle id="椭圆_1" data-name="椭圆 1" cx="433" cy="433" r="433" transform="translate(63 92)" fill="#fff"/>
  <g id="组_1" data-name="组 1" transform="translate(205.321 171.806)">
    <path id="路径_2" data-name="路径 2" d="M45.308,594.7c-22.894,0-41.565-19.374-41.565-43.33v-422.7c0-23.955,18.668-43.327,41.565-43.327H267.58a24.192,24.192,0,0,1,21.136,12.683L363.39,239.275H556.776c23.252,0,52.838,29.592,52.838,52.838V551.724c0,23.956-18.668,43.324-41.568,43.324H45.308ZM80.533,132.9a29.012,29.012,0,0,0-28.882,28.885V517.909a29.01,29.01,0,0,0,28.882,28.882l452.289,0a29.01,29.01,0,0,0,28.885-28.879V320.292a33.678,33.678,0,0,0-33.464-33.464h-179.3a24.194,24.194,0,0,1-21.133-12.68L261.241,148.393a28.851,28.851,0,0,0-25.717-15.5l-154.99,0Z" fill="#eaeaea"/>
    <path id="路径_3" data-name="路径 3" d="M746.6,309.138H575.794L502.646,164.362H726.081c20.9,0,46.363,25.46,46.363,57V283.3a25.972,25.972,0,0,1-25.084,25.839H746.6Z" transform="translate(-200.899 -31.821)" fill="#eaeaea"/>
  </g>
</svg>
